<?xml version="1.0" encoding="UTF-8" standalone="no"?>
<!-- Created with Inkscape (http://www.inkscape.org/) -->

<svg
   xmlns:dc="http://purl.org/dc/elements/1.1/"
   xmlns:cc="http://creativecommons.org/ns#"
   xmlns:rdf="http://www.w3.org/1999/02/22-rdf-syntax-ns#"
   xmlns:svg="http://www.w3.org/2000/svg"
   xmlns="http://www.w3.org/2000/svg"
   xmlns:sodipodi="http://sodipodi.sourceforge.net/DTD/sodipodi-0.dtd"
   xmlns:inkscape="http://www.inkscape.org/namespaces/inkscape"
   width="128"
   height="104"
   id="svg2"
   version="1.1"
   inkscape:version="0.48.4 r9939"
   sodipodi:docname="swan.svg">
  <defs
     id="defs4" />
  <sodipodi:namedview
     id="base"
     pagecolor="#ffffff"
     bordercolor="#666666"
     borderopacity="1.0"
     inkscape:pageopacity="0.0"
     inkscape:pageshadow="2"
     inkscape:zoom="2.8"
     inkscape:cx="48.083859"
     inkscape:cy="10.188673"
     inkscape:document-units="px"
     inkscape:current-layer="layer1"
     showgrid="true"
     inkscape:showpageshadow="false"
     inkscape:window-width="861"
     inkscape:window-height="847"
     inkscape:window-x="577"
     inkscape:window-y="24"
     inkscape:window-maximized="0">
    <inkscape:grid
       type="xygrid"
       id="grid3830"
       empspacing="5"
       visible="true"
       enabled="true"
       snapvisiblegridlinesonly="true"
       originx="0px"
       spacingx="0.8px"
       spacingy="0.8px" />
  </sodipodi:namedview>
  <metadata
     id="metadata7">
    <rdf:RDF>
      <cc:Work
         rdf:about="">
        <dc:format>image/svg+xml</dc:format>
        <dc:type
           rdf:resource="http://purl.org/dc/dcmitype/StillImage" />
        <dc:title />
      </cc:Work>
    </rdf:RDF>
  </metadata>
  <g
     inkscape:label="Layer 1"
     inkscape:groupmode="layer"
     id="layer1"
     transform="translate(0,-948.36218)">
    <path
       style="fill:#444444;fill-opacity:1;stroke:none"
       d="m 9.551608,966.66247 c -1.4130636,-7.68426 8.592495,-20.11815 21.110243,-15.8928 9.725934,3.28297 19.156574,15.71203 6.52068,33.45717 -6.2685,8.80314 -17.873432,10.72913 -21.356997,29.21516 24.909676,-32.13617 70.071573,-36.92537 102.622436,6.0949 -15.75829,-12.7734 -31.892486,-8.3566 -31.892486,-8.3566 0,0 31.841756,6.864 40.444516,32.9526 -43.634934,-11.4807 -53.888897,6.684 -88.049747,7.0152 -34.5665194,0.3354 -55.264934,-39.0907 -18.630726,-66.82364 18.774193,-14.21251 8.933024,-22.44736 1.674744,-15.20722 -4.034224,4.02415 -7.757816,8.34123 -15.6453336,11.45358 -2.060956,0.81324 -2.4136454,-1.48515 -1.2034654,-3.24034 5.788861,-8.39598 4.993076,-7.47622 4.406136,-10.66801 z"
       id="path2985"
       inkscape:connector-curvature="0"
       sodipodi:nodetypes="sssccccssssss" />
  </g>
</svg>
